<!-- Generator: Adobe Illustrator 21.0.2, SVG Export Plug-In  -->
<svg version="1.1"
	 xmlns="http://www.w3.org/2000/svg" xmlns:xlink="http://www.w3.org/1999/xlink" xmlns:a="http://ns.adobe.com/AdobeSVGViewerExtensions/3.0/"
	 x="0px" y="0px" width="29.6px" height="30px" viewBox="0 0 29.6 30" style="enable-background:new 0 0 29.6 30;"
	 xml:space="preserve">
<style type="text/css">
	.st0{fill-rule:evenodd;clip-rule:evenodd;fill:#CDA030;}
</style>
<defs>
</defs>
<g>
	<path class="st0" d="M18.3,4.3h-7.1c1.2-1.3,2.8-2.5,3.5-3.7c0-0.2,0-0.5,0.1-0.7C14.3,1.4,17.1,2.7,18.3,4.3L18.3,4.3z M20.9,5
		v0.7c0.7,0.4,1.9,1.1,2.2,1.1c0.3,0,0.6-0.1,0.8-0.5c-0.1,0.2-0.2,0.5-0.4,0.8c-0.2,0.3-0.8,0.7-1,0.7H6.9c-0.6,0-1.4-1-1.3-1.4
		c0.3,0.4,0.6,0.5,0.8,0.5c0.3,0,2-1.1,2.2-1.3V5H20.9L20.9,5z M8.4,9h12.7V8.6H8.4V9L8.4,9z M9,11.3h11.6V9.6H9V11.3L9,11.3z
		 M22.5,12.9c0.3,0.2,2.2,1.5,2.8,1.5c0.3,0,0.8-0.3,1-0.7c-0.1,0.6-0.7,0.9-0.7,1.5c0,0.1-0.2,0.3-0.3,0.4H4l0.2-0.2
		c-0.4-0.6-0.8-0.8-1-1.4v-0.3c0.2,0.4,0.7,0.7,1,0.7c0.6,0,2.5-1.4,2.7-1.5C7,12.7,7,12.5,7,12.1h15.6V12.9L22.5,12.9z M6.3,16.8
		h18v-0.4h-18V16.8L6.3,16.8z M22.4,17.5v1.6H7.2c0-0.4,0.1-0.9,0.1-1.1c0-0.3-0.3-0.3-0.3-0.5H22.4L22.4,17.5L22.4,17.5z M24.7,20
		v1.1c0.1,0,2.8,1.8,3.5,1.8c0.4,0,0.9-0.2,1.3-0.8c0.3,0.6-1.2,2.4-2.1,2.4H2c-0.3-0.1-0.8-0.3-1-0.6C0.5,23.5,0,22.7,0,22.5v-0.5
		c0.3,0.7,0.8,0.8,1.3,0.8c0.8,0,2.8-1.5,3.4-1.8c0.1,0,0.1-0.2,0.1-0.3V20H24.7L24.7,20z M4.4,25.8h20.7v-0.5H4.4V25.8L4.4,25.8z
		 M5.4,28h18.8v-1.7H5.4V28L5.4,28z M2.6,30h24.2v-1H2.6L2.6,30L2.6,30L2.6,30z"/>
</g>
</svg>
