<!-- Generator: Adobe Illustrator 21.0.2, SVG Export Plug-In  -->
<svg version="1.1"
	 xmlns="http://www.w3.org/2000/svg" xmlns:xlink="http://www.w3.org/1999/xlink" xmlns:a="http://ns.adobe.com/AdobeSVGViewerExtensions/3.0/"
	 x="0px" y="0px" width="21.4px" height="30px" viewBox="0 0 21.4 30" style="enable-background:new 0 0 21.4 30;"
	 xml:space="preserve">
<style type="text/css">
	.st0{fill-rule:evenodd;clip-rule:evenodd;fill:#FFFFFF;}
</style>
<defs>
</defs>
<g>
	<path class="st0" d="M17.1,8.6V6.4c0-3.6-2.9-6.4-6.4-6.4l0,0C7.1,0,4.3,2.9,4.3,6.4v2.1H0V30h21.4V8.6H17.1L17.1,8.6z M6.4,15H4.3
		v-4.3h2.1V15L6.4,15z M15,8.6H6.4V6.4c0-1.1,0.4-2.2,1.3-3c0.8-0.8,1.9-1.3,3-1.3s2.2,0.4,3,1.3c0.8,0.8,1.3,1.9,1.3,3L15,8.6
		L15,8.6L15,8.6z M17.1,15H15v-4.3h2.1V15L17.1,15z"/>
</g>
</svg>
