<!-- Generator: Adobe Illustrator 21.0.2, SVG Export Plug-In  -->
<svg version="1.1"
	 xmlns="http://www.w3.org/2000/svg" xmlns:xlink="http://www.w3.org/1999/xlink" xmlns:a="http://ns.adobe.com/AdobeSVGViewerExtensions/3.0/"
	 x="0px" y="0px" width="30px" height="21.3px" viewBox="0 0 30 21.3" style="enable-background:new 0 0 30 21.3;"
	 xml:space="preserve">
<style type="text/css">
	.st0{fill-rule:evenodd;clip-rule:evenodd;fill:#666666;}
</style>
<defs>
</defs>
<g>
	<path class="st0" d="M15,18.7c-0.4-0.4-0.7-0.8-1-1.2c-1.3-1.7-2.3-3.7-2.7-5.8C10.7,9.3,11,7,11.9,4.7c0.7-1.7,1.6-3.1,2.8-4.5
		C14.8,0.2,14.9,0.1,15,0c0.3,0.3,0.6,0.6,0.8,1c1.4,1.8,2.4,3.8,2.9,6.1c0.6,2.6,0.2,5.1-0.9,7.4c-0.7,1.5-1.6,2.8-2.7,4
		C15.1,18.6,15.1,18.6,15,18.7L15,18.7 M15,18.7L15,18.7z"/>
	<path class="st0" d="M13.3,21.3c-0.6,0-1.1,0-1.6-0.1c-2.1-0.2-4-0.7-5.9-1.7c-2.5-1.3-4.4-3.2-5.7-5.7c0-0.1-0.1-0.1-0.1-0.3
		c0.3,0,0.6-0.1,0.9-0.1c2.2-0.2,4.4,0,6.5,0.8c3.2,1.2,5.2,3.6,6,6.9C13.3,21.2,13.3,21.2,13.3,21.3L13.3,21.3 M13.3,21.3
		L13.3,21.3z"/>
	<path class="st0" d="M16.7,21.2c0.2-0.9,0.4-1.6,0.8-2.4c1.2-2.5,3.3-4.1,5.9-4.9c1.9-0.6,3.8-0.7,5.8-0.6c0.2,0,0.5,0,0.8,0.1
		c-0.2,0.4-0.4,0.7-0.6,1c-1.7,2.9-4.2,4.8-7.4,5.8c-1.6,0.5-3.3,0.8-5,0.8C16.9,21.2,16.8,21.2,16.7,21.2L16.7,21.2 M16.7,21.2
		L16.7,21.2z"/>
	<path class="st0" d="M7.5,2.3c0.7,0.5,1.3,1,1.9,1.5c0.4,0.5,0.8,1,1.2,1.5c0.1,0.1,0.1,0.3,0.1,0.5c-0.8,3.5-0.4,6.8,1.3,9.9
		c0.1,0.2,0.2,0.3,0.3,0.5c0,0,0,0,0,0c-2.2-1.6-3.9-3.5-4.7-6.1C6.5,7.6,6.6,5,7.5,2.3L7.5,2.3 M7.5,2.3L7.5,2.3z"/>
	<path class="st0" d="M22.5,2.3c0.8,2.4,1,4.9,0.3,7.3c-0.8,2.8-2.6,4.9-4.9,6.6c0,0,0-0.1,0.1-0.1c1.4-2.5,2-5.1,1.8-7.9
		c-0.1-0.8-0.2-1.6-0.4-2.4c0-0.1,0-0.2,0-0.3C20.1,4.2,21.2,3.2,22.5,2.3L22.5,2.3 M22.5,2.3L22.5,2.3z"/>
	<path class="st0" d="M1.5,7.2c1.1,0.2,2.1,0.5,3.1,0.9c0.5,0.2,1,0.4,1.5,0.6c0.1,0,0.2,0.1,0.2,0.2C6.4,10,6.8,11,7.3,12
		c0.4,0.7,0.8,1.3,1.2,2c0,0-0.1,0-0.1,0c-1.3-0.6-2.6-1-4-1.2c-0.1,0-0.2,0-0.3,0c-0.5,0-0.7-0.2-0.9-0.6c-0.8-1.2-1.4-2.5-1.6-4
		c0-0.3-0.1-0.5-0.1-0.8C1.5,7.3,1.5,7.3,1.5,7.2L1.5,7.2 M1.5,7.2L1.5,7.2z"/>
	<path class="st0" d="M28.5,7.2C28.4,8,28.2,8.8,28,9.6c-0.4,1.1-0.9,2.1-1.5,3c0,0.1-0.1,0.1-0.2,0.1c-1.4,0.1-2.7,0.4-4,1
		c-0.3,0.1-0.5,0.2-0.8,0.4c0.2-0.3,0.4-0.5,0.5-0.7c0.8-1.2,1.5-2.5,1.8-4c0,0,0,0,0-0.1c0-0.4,0.2-0.6,0.6-0.8
		c1.3-0.6,2.6-1,3.9-1.3C28.3,7.2,28.4,7.2,28.5,7.2L28.5,7.2 M28.5,7.2L28.5,7.2z"/>
</g>
</svg>
