<!-- Generator: Adobe Illustrator 21.0.2, SVG Export Plug-In  -->
<svg version="1.1"
	 xmlns="http://www.w3.org/2000/svg" xmlns:xlink="http://www.w3.org/1999/xlink" xmlns:a="http://ns.adobe.com/AdobeSVGViewerExtensions/3.0/"
	 x="0px" y="0px" width="28px" height="28px" viewBox="0 0 28 28" style="enable-background:new 0 0 28 28;" xml:space="preserve">
<style type="text/css">
	.st0{fill-rule:evenodd;clip-rule:evenodd;fill:#666666;}
</style>
<defs>
</defs>
<g>
	<path class="st0" d="M1.8,25.9l8.2-2.3l0.9-0.9L5.1,17l-0.9,0.9L1.8,25.9 M6.1,16l5.8,5.8l11.3-11.3l-5.8-5.8L6.1,16 M25.8,4.4
		l-2.3-2.3c-1.3-1.3-2.1-1.3-3.5,0l-1.6,1.6l5.8,5.8l1.6-1.6C27.1,6.5,27.1,5.7,25.8,4.4 M9.9,2.2c-1.3-1.3-2.1-1.3-3.5,0L1,7.7
		l-1-1L5.8,1c1.3-1.3,3.5-1.3,4.8,0l3.2,3.2l-1,1L9.9,2.2L9.9,2.2 M3.4,8.2l1.9-1.9l1,1L4.3,9.2L4.2,9.1l1.1,1.1l2.9-2.9l1,1
		l-2.9,2.9l0.3,0.3l-1,1L1,7.7l1-1L3.4,8.2L3.4,8.2 M16.9,21.7l2.9,2.9l1.4,1.4l4.5-4.5c1.3-1.3,1.3-2.1,0-3.5l-3-3l1-1l3.3,3.3
		c1.3,1.3,1.3,3.5,0,4.8L22.2,27l-1,1l-1-1l-4.8-4.8l1-1L16.9,21.7 M20.7,19.8l-2.9,2.9l-1-1l2.9-2.9L20.7,19.8 M21.2,21.2l1,1
		l-2.4,2.4l-1-1L21.2,21.2 M21.2,21.2L21.2,21.2z"/>
</g>
</svg>
