<!-- Generator: Adobe Illustrator 21.0.2, SVG Export Plug-In  -->
<svg version="1.1"
	 xmlns="http://www.w3.org/2000/svg" xmlns:xlink="http://www.w3.org/1999/xlink" xmlns:a="http://ns.adobe.com/AdobeSVGViewerExtensions/3.0/"
	 x="0px" y="0px" width="30px" height="27.5px" viewBox="0 0 30 27.5" style="enable-background:new 0 0 30 27.5;"
	 xml:space="preserve">
<style type="text/css">
	.st0{fill-rule:evenodd;clip-rule:evenodd;fill:#666666;}
</style>
<defs>
</defs>
<g>
	<path class="st0" d="M27,15.2c-0.9,0-1.7-0.3-2.3-0.8c-0.1,0-9.7-9.6-9.7-9.6l-9.5,9.5c0,0-0.1,0.1-0.1,0.1
		c-0.6,0.5-1.4,0.9-2.3,0.9c-1.3,0-2.4-0.7-3-1.7c0.4,0.1,0.8,0.2,1.2,0.2c1.4,0,2.5-0.9,3.3-1.7c0,0,9.1-8.9,9.2-9
		c-0.3-0.3-0.5-0.8-0.5-1.3C13.2,0.8,14,0,15,0c1,0,1.8,0.8,1.8,1.8c0,0.5-0.2,0.9-0.5,1.3c0.1,0,9.2,9,9.2,9
		c0.6,0.7,1.9,1.7,3.3,1.7c0.4,0,0.8-0.1,1.2-0.2C29.4,14.6,28.2,15.2,27,15.2L27,15.2z M4.1,25.4h1.1V17C5.2,16.6,15,6.9,15,6.9
		s9.8,9.7,9.8,10.1v8.3h1.1c0.6,0,1.1,0.5,1.1,1.1c0,0.6-0.5,1.1-1.1,1.1H4.1C3.5,27.5,3,27,3,26.4C3,25.8,3.5,25.4,4.1,25.4
		L4.1,25.4z M15,15.9c1,0,1.8-0.8,1.8-1.8c0-1-0.8-1.8-1.8-1.8c-1,0-1.8,0.8-1.8,1.8C13.2,15.1,14,15.9,15,15.9L15,15.9z"/>
</g>
</svg>
