<!-- Generator: Adobe Illustrator 21.0.2, SVG Export Plug-In  -->
<svg version="1.1"
	 xmlns="http://www.w3.org/2000/svg" xmlns:xlink="http://www.w3.org/1999/xlink" xmlns:a="http://ns.adobe.com/AdobeSVGViewerExtensions/3.0/"
	 x="0px" y="0px" width="27.7px" height="28px" viewBox="0 0 27.7 28" style="enable-background:new 0 0 27.7 28;"
	 xml:space="preserve">
<style type="text/css">
	.st0{fill-rule:evenodd;clip-rule:evenodd;fill:#666666;}
</style>
<defs>
</defs>
<g>
	<path class="st0" d="M26.4,23.5h-0.9V11c0-0.8-0.6-1.4-1.4-1.4H18V1.4C18,0.6,17.4,0,16.6,0H3.1C2.3,0,1.7,0.6,1.7,1.4v22.1H1.4
		c-0.8,0-1.4,0.6-1.4,1.4v1.8C0,27.4,0.6,28,1.4,28h25c0.8,0,1.4-0.6,1.4-1.4v-1.8C27.7,24.1,27.1,23.5,26.4,23.5L26.4,23.5
		L26.4,23.5z M14.1,18.5c0,0.8-0.6,1.4-1.4,1.4H7c-0.8,0-1.4-0.6-1.4-1.4V18c0-0.8,0.6-1.4,1.4-1.4h5.7c0.8,0,1.4,0.6,1.4,1.4V18.5
		L14.1,18.5L14.1,18.5z M14.1,12.5c0,0.8-0.6,1.4-1.4,1.4H7c-0.8,0-1.4-0.6-1.4-1.4v-0.4c0-0.8,0.6-1.4,1.4-1.4h5.7
		c0.8,0,1.4,0.6,1.4,1.4V12.5L14.1,12.5z M14.1,6c0,0.8-0.6,1.4-1.4,1.4H7C6.2,7.4,5.6,6.8,5.6,6V5.6c0-0.8,0.6-1.4,1.4-1.4h5.7
		c0.8,0,1.4,0.6,1.4,1.4V6L14.1,6z M22.8,20.9h-3.7c-0.6,0-1.1-0.5-1.1-1.1c0-0.6,0.5-1.1,1.1-1.1h3.7c0.6,0,1.1,0.5,1.1,1.1
		C23.9,20.4,23.4,20.9,22.8,20.9L22.8,20.9z M22.8,16.3h-3.7c-0.6,0-1.1-0.5-1.1-1.1c0-0.6,0.5-1.1,1.1-1.1h3.7
		c0.6,0,1.1,0.5,1.1,1.1C23.9,15.8,23.4,16.3,22.8,16.3L22.8,16.3z"/>
</g>
</svg>
